# xmcd CD database file
#
# Track frame offsets:
#	150
#	14807
#	29427
#	46520
#	62175
#	77492
#	104110
#	118607
#	133642
#	155125
#	174520
#	193507
#	213747
#	241825
#
# Disc length: 3445 seconds
#
# Revision: 0
# Processed by: cddbd v1.5.2PL0 Copyright (c) Steve Scherf et al.
# Submitted via: CDex 1.70beta2
#
DISCID=c50d730e
DTITLE=Jean Shy and the real climax band cologne - the night time is the right time
DYEAR=1995
DGENRE=Jazz
TTITLE0=The Night Time Is The Right Time 
TTITLE1=Operator
TTITLE2=get here
TTITLE3=sir duke
TTITLE4=My Baby Just Cares For Me
TTITLE5=My Baby Just Cares For Me
TTITLE6=Bleberry Hillo
TTITLE7=New York, New York
TTITLE8=Song for you
TTITLE9=What a wonderful world
TTITLE10=Evil Gal Blues 
TTITLE11=My Way
TTITLE12=Amazing grace
TTITLE13=Blow Top  Blues (Short Version)
EXTD=YEAR: 1995
EXTT0=
EXTT1=
EXTT2=
EXTT3=
EXTT4=
EXTT5=
EXTT6=
EXTT7=
EXTT8=
EXTT9=
EXTT10=
EXTT11=
EXTT12=
EXTT13=
PLAYORDER=
